<svg xmlns="http://www.w3.org/2000/svg" viewBox="0 0 520 520">
<g id="_x31_650_x2C__Employee_x2C__group_x2C__management_x2C__organization_x2C__team">
	<g>
		<path d="M130,185c20.575,0,39.726-8.172,54.004-23.006c3.635-7.238,8.267-13.889,13.726-19.768    C202.55,132.119,205,121.281,205,110c0-41.355-33.645-75-75-75s-75,33.645-75,75S88.645,185,130,185z"/>
		<path d="M260,275c41.355,0,75-33.645,75-75s-33.645-75-75-75c-41.355,0-75,33.645-75,75S218.645,275,260,275z"/>
		<path d="M335.996,161.994C350.274,176.828,369.425,185,390,185c41.355,0,75-33.645,75-75s-33.645-75-75-75s-75,33.645-75,75    c0,11.28,2.449,22.117,7.27,32.224C327.729,148.104,332.361,154.755,335.996,161.994z"/>
		<path d="M390,195c-15.853,0-31.034,3.428-45.174,10.188c-2.044,33.756-23.873,62.24-54.018,74.009    C339.307,292.698,375,337.257,375,390v15h120V300C495,242.103,447.897,195,390,195z"/>
		<path d="M229.192,279.197c-30.145-11.77-51.975-40.253-54.019-74.009C161.034,198.428,145.853,195,130,195    c-57.897,0-105,47.103-105,105v105h120v-15C145,337.257,180.693,292.698,229.192,279.197z"/>
		<path d="M260,285c-57.897,0-105,47.104-105,105v105h210V390C365,332.104,317.897,285,260,285z"/>
	</g>
</g>
<g id="Layer_1_1_">
</g>
</svg>